<?xml version="1.0" ?>
<!-- Uploaded to: SVG Repo, www.svgrepo.com, Generator: SVG Repo Mixer Tools -->
<svg width="800px" height="800px" viewBox="0 0 64 64" xmlns="http://www.w3.org/2000/svg">
<defs>
<style>.cls-1{fill:#9dcbf4;}.cls-2{fill:#389ad6;}.cls-3{fill:none;stroke:#2a5081;stroke-linecap:round;stroke-linejoin:round;stroke-width:2px;}.cls-4{fill:#2a5081;}</style>
</defs>
<title/>
<g data-name="Layer 5" id="Layer_5">
<path class="cls-1" d="M43.33,44c-.23-1.59-3.12-.41-3.95-.29-1.23.17-2.71,0-3.28-1.13s.22-2.64.07-4a1.11,1.11,0,0,0-.22-.62s-.05-.06-.08-.07c-.37-.35-1-.22-1.51-.09l-.12,0A6.85,6.85,0,0,1,28.76,37a5.06,5.06,0,0,1-.79-.61,5.67,5.67,0,0,1-1.33-1.91,0,0,0,0,0,0,0,5.33,5.33,0,0,1-.07-4.2,7.47,7.47,0,0,1,3.64-3.48A6.85,6.85,0,0,0,32,25.69h0a1.79,1.79,0,0,0,.51-1.93c-.48-1.07-2.14-1.05-2.81-2a2.3,2.3,0,0,1,0-2.22c.32-.71.8-1.33,1-2.07a2,2,0,0,0-.39-2.14,1.5,1.5,0,0,0-.52-.26h0l-.07,0a3.46,3.46,0,0,0-1.56.09,17.7,17.7,0,0,0-9.89,6.53,16.31,16.31,0,0,0-1.78,2.91,17,17,0,0,0-1.31,3.93,17.56,17.56,0,0,0,1.35,11.06,17.31,17.31,0,0,0,11.81,9.22,16.55,16.55,0,0,0,7-.07c.28,0,.55-.12.83-.19l.54-.16a23.3,23.3,0,0,0,2.34-.87l.28-.12A9.87,9.87,0,0,0,43,45.08l0,0A1.41,1.41,0,0,0,43.33,44ZM34.5,38.83,32,44.64v0L30,48a1.11,1.11,0,0,1-1.53-.83,2.13,2.13,0,0,1-.07-.27,4.61,4.61,0,0,1,.79-3.23,13.94,13.94,0,0,1,2.34-2.87c.87-.85,1.83-1.63,2.75-2.38ZM18.71,21.44l6.45,11.17.05.09a17.35,17.35,0,0,1,1.71,4.05C15.18,26.19,17.62,22.39,18.71,21.44Z"/>
<path class="cls-2" d="M29.24,43.67a4.61,4.61,0,0,0-.79,3.23c0,.1.52,1.23.55,1.32S28.11,48,28,48c-1.41.3-2.63-.92-3.93-1.54A16.37,16.37,0,0,1,16,37.37a17.38,17.38,0,0,1-.81-8,.25.25,0,0,1,0-.08,1.1,1.1,0,0,1,0-.18c0-.21.06-.42.08-.63a12.27,12.27,0,0,1,2-5.85,5,5,0,0,1,.49-.54,4.09,4.09,0,0,1,.56-.45l.17-.11.18-.1,0,0,0,0c-1.09,1-3.53,4.75,8.21,15.31a17.35,17.35,0,0,0-1.71-4.05l-.05-.09C23,28.2,19.45,21.84,19.1,21.22a5.64,5.64,0,0,1,5.82.66c1.57,1.4,1.66,3.81,1.4,5.9-.09.75-.21,1.52-.29,2.29h0A7.9,7.9,0,0,0,26.41,34c.07.16.14.31.22.46a0,0,0,0,1,0,0A11.27,11.27,0,0,0,28.76,37l.72.7c.6.6,1.4.24,1.83,1,.21.35,2.63-.77,2.75-.37A52.9,52.9,0,0,0,29.24,43.67Z"/>
<path class="cls-3" d="M37.44,28.77A6.29,6.29,0,1,1,32,25.68"/>
<path class="cls-3" d="M47.9,25.68,48,26a17.09,17.09,0,1,1-4.09-6.23"/>
<line class="cls-3" x1="47.89" x2="32.02" y1="25.68" y2="25.68"/>
<polyline class="cls-3" points="29.55 48.86 30.05 48 31.97 44.66 31.98 44.64 35.87 37.9 37.46 35.14"/>
<polyline class="cls-3" points="26.41 34.77 26.39 34.73 26.34 34.64 25.21 32.7 25.16 32.61 18.71 21.44 18.7 21.43 18.66 21.35"/>
<circle class="cls-4" cx="46.09" cy="22.63" r="1"/>
<path class="cls-1" d="M31.13,28.37a1.68,1.68,0,0,0-1.92.3,5.21,5.21,0,0,0-1.49,2.82,4.14,4.14,0,0,0,4.06,5,5.39,5.39,0,0,0,4.27-2.78,1.58,1.58,0,0,0-.35-1.82c-1.18-.92-1.89.23-2.73.94-.57.48-2.58.93-2.6-.31s1.52-1.93,1.28-3.27A1.26,1.26,0,0,0,31.13,28.37Z"/>
</g>
</svg>